<?xml version="1.0" encoding="UTF-8"?>
<svg id="Layer_2" data-name="Layer 2" xmlns="http://www.w3.org/2000/svg" viewBox="0 0 1181.4 718.3">
  <defs>
    <style>
      .cls-1 {
        fill: #fff;
      }
    </style>
  </defs>
  <g id="Layer_2-2" data-name="Layer 2">
    <g>
      <path class="cls-1" d="M24.36,342.21L.59,462.04c-.4,2.4-.59,4.77-.59,7.11,0,23.12,18.79,42.69,42.79,42.69,20.9,0,38.75-15.1,42.2-35.72l25.54-131.08-86.17-2.83ZM149.99,346.34l5.51,125.99c.72,11.11,5.69,20.99,13.26,28.09,7.58,7.1,17.76,11.42,28.9,11.42,17.32,0,32.88-10.57,39.27-26.67l52.03-134.27-138.97-4.56ZM335.76,352.44l-18.27,101.64c-.48,2.83-.71,5.63-.71,8.39,0,26.73,21.73,49.37,49.5,49.37,24.2,0,44.85-17.49,48.82-41.36l19.11-114.81-98.45-3.23ZM403.52,0c-31.79,0-60.23,19.74-71.35,49.51l-76.66,205.27c-1.33,3.54-2.86,7.77-4.53,12.52-4.61,13.14-23.99,10.34-24.61-3.57l-.02-.51-6.61-124.84c-.72-20.73-9.6-39.32-23.48-52.72-13.88-13.4-32.76-21.62-53.51-21.62-37.66,0-69.8,27.23-75.99,64.39l-42.34,213.48,87.14-2.15,31.15-159.84,6.95,158.9,145.36-3.58,81.73-210.92-37.71,209.83,99.15-2.44,40.45-243.05c.71-4.26,1.05-8.49,1.05-12.65,0-41.16-33.44-76.01-76.17-76.01Z"/>
      <path class="cls-1" d="M454.5,356.33l-16.34,98.26c-4.98,29.98,18.13,57.25,48.52,57.25h.12c24.02,0,44.52-17.33,48.5-41.01l18.73-111.23-99.53-3.27ZM533.94,133.53h-.7c-24.05,0-44.57,17.39-48.51,41.11l-26.04,156.57,100.54-2.48,23.21-137.85c5.05-30-18.08-57.35-48.5-57.35Z"/>
      <path class="cls-1" d="M571.83,360.19l-15.84,94.32c-.47,2.78-.69,5.53-.69,8.24,0,26.58,21.59,49.09,49.2,49.09,24.03,0,44.54-17.35,48.52-41.04l18.03-107.36-99.22-3.25ZM673.93,0c-24.02,0-44.53,17.36-48.51,41.05l-48.23,287.23,100.17-2.46,45.08-268.48c.47-2.78.69-5.54.69-8.25,0-26.58-21.6-49.09-49.2-49.09Z"/>
      <path class="cls-1" d="M688.91,364.03l-15.12,90.05c-.47,2.8-.7,5.57-.7,8.3,0,26.78,21.77,49.46,49.58,49.46,24.21,0,44.88-17.49,48.88-41.37l17.27-103.16-99.91-3.28ZM966.41,160.13c6.29-7.41,9.11-16.01,9.11-24.42,0-19.65-15.43-38.27-38.13-38.27-12.01,0-23.32,5.67-30.5,15.29l-70.67,94.5c-6.72,9-21,2.92-19.18-8.16l23.33-141.78c.45-2.73.67-5.44.67-8.1,0-26.65-21.66-49.19-49.3-49.19-24.07,0-44.62,17.39-48.61,41.13l-47.73,284.24,111.17-2.74,5.12,29.93c.2.58.36,1.18.46,1.82l19.32,116.41c1.97,11.84,8.07,22.11,16.69,29.41,8.61,7.3,19.74,11.64,31.74,11.64,31.41,0,54.74-29.09,47.92-59.75l-17.32-77.82-38.03,34.45,18.16-56.37c.44-1.37.12-2.88-.85-3.95l-39.76-43.89,48.42,15.6-12.19-54.76c-.73-3.28.12-6.71,2.3-9.27l77.86-95.95Z"/>
      <path class="cls-1" d="M1181.4,250.31c0,5.5-.99,11.1-3.16,16.6l-126.94,320.2c-17.59,43.76-40.42,72.9-51.16,85.9-22.28,27.69-44.48,45.29-95.72,45.29h-.09c-1.18,0-2.35-.09-3.43-.18-22.38-1.72-39.97-20.39-39.97-43.22s19.4-43.31,43.4-43.31c.9,0,1.8,0,2.7.09h.18c.73-.09,1.36-.09,2.08-.09h.27c34.56,0,49.08-15.34,63.7-66.76l-43.34-193.63,46.76,15.06-39.76-43.88c-.97-1.07-1.3-2.58-.85-3.96l18.15-56.36-36.79,33.34-8.41-37.57c-3.52-28.79,18.94-54.05,47.91-54.05,12.72,0,24.36,4.96,33.02,13.08,8.66,8.13,14.25,19.4,15.07,32.12l35,162.32,60.18-199.4c5.32-15.7,20.03-26.16,36.54-26.16,25.63,0,44.66,20.93,44.66,44.57Z"/>
    </g>
  </g>
</svg>